# AST/ASF file generated using VICON BodyLanguage
# -----------------------------------------------
:version 1.10
:name VICON
:units
  mass 1.0
  length 0.45
  angle deg
:documentation
   .ast/.asf automatically generated from VICON data using
   VICON BodyBuilder and BodyLanguage model FoxedUp or BRILLIANT.MOD
:root
   order TX TY TZ RX RY RZ
   axis XYZ
   position 0 0 0  
   orientation 0 0 0 
:bonedata
  begin
     id 1 
     name lhipjoint
     direction 0.627412 -0.730575 0.26947 
     length 2.49821 
     axis 0 0 0  XYZ
  end
  begin
     id 2 
     name lfemur
     direction 0.34202 -0.939693 0  
     length 6.89165  
     axis 0 0 20  XYZ
    dof rx ry rz
    limits (-160.0 20.0)
           (-70.0 70.0)
           (-60.0 70.0)
  end
  begin
     id 3 
     name ltibia
     direction 0.34202 -0.939693 0   
     length 7.91287   
     axis 0 0 20   XYZ
    dof rx
    limits (-10.0 170.0)
  end
  begin
     id 4 
     name lfoot
     direction 0.0941675 -0.258723 0.96135   
     length 2.16919   
     axis -90 7.62852e-016 20   XYZ
    dof rx rz
    limits (-45.0 90.0)
           (-70.0 20.0)
  end
  begin
     id 5 
     name ltoes
     direction 1.5347e-011 -4.21941e-011 1   
     length 1.08535   
     axis -90 7.62852e-016 20   XYZ
    dof rx
    limits (-90.0 20.0)
  end
  begin
     id 6 
     name rhipjoint
     direction -0.614241 -0.740361 0.27308   
     length 2.46519  
     axis 0 0 0  XYZ 
  end
  begin
     id 7 
     name rfemur
     direction -0.34202 -0.939693 0   
     length 7.27512   
     axis 0 0 -20   XYZ
    dof rx ry rz
    limits (-160.0 20.0)
           (-70.0 70.0)
           (-70.0 60.0)
  end
  begin
     id 8 
     name rtibia
     direction -0.34202 -0.939693 0   
     length 7.89523   
     axis 0 0 -20   XYZ
    dof rx
    limits (-10.0 170.0)
 end
 begin
     id 9 
     name rfoot
     direction -0.0860444 -0.236405 0.967837   
     length 2.29534  
     axis -90 -7.62852e-016 -20   XYZ
    dof rx rz
    limits (-45.0 90.0)
           (-20.0 70.0)
  end
  begin
     id 10 
     name rtoes
     direction -1.53608e-011 -4.21861e-011 1   
     length 1.14915   
     axis -90 -7.62852e-016 -20   XYZ
    dof rx
    limits (-90.0 20.0)
  end
  begin
     id 11 
     name lowerback
     direction -0.00734074 0.997215 -0.0742143   
     length 2.13469   
     axis 0 0 0   XYZ
    dof rx ry rz
    limits (-20.0 45.0)
           (-30.0 30.0)
           (-30.0 30.0)
  end
  begin
     id 12 
     name upperback
     direction 0.0285728 0.99958 -0.00488656   
     length 2.13416   
     axis 0 0 0   XYZ
    dof rx ry rz
    limits (-20.0 45.0)
           (-30.0 30.0)
           (-30.0 30.0)
  end
  begin
     id 13 
     name thorax
     direction 0.0316844 0.999056 0.0297249   
     length 2.14463   
     axis 0 0 0   XYZ
    dof rx ry rz
    limits (-20.0 45.0)
           (-30.0 30.0)
           (-30.0 30.0)
  end
  begin
     id 14 
     name lowerneck
     direction -0.0281545 0.996802 0.0747864   
     length 1.79004   
     axis 0 0 0   XYZ
    dof rx ry rz
    limits (-20.0 45.0)
           (-30.0 30.0)
           (-30.0 30.0)
  end
  begin
     id 15 
     name upperneck
     direction -0.00100185 0.982732 -0.185031   
     length 1.79988   
     axis 0 0 0   XYZ
    dof rx ry rz
    limits (-20.0 45.0)
           (-30.0 30.0)
           (-30.0 30.0)
  end
  begin
     id 16
     name head
     direction 0.00403747 0.997539 -0.0700022  
     length 1.81696  
     axis 0 0 0   XYZ
    dof rx ry rz
    limits (-20.0 45.0)
           (-30.0 30.0)
           (-30.0 30.0)
  end
  begin
     id 17 
     name lclavicle
     direction 0.959882 0.242905 -0.140082  
     length 3.87755  
     axis 0 0 0   XYZ
    dof ry rz
    limits (-20.0 10.0)
           (0.0 20.0)
  end
  begin
     id 18 
     name lhumerus
     direction 1 -4.4895e-011 3.76166e-027   
     length 5.14601   
     axis 180 -30 -90   XYZ
    dof rx ry rz
    limits (-60.0 90.0)
           (-90.0 90.0)
           (-90.0 90.0)
  end
  begin
     id 19
     name lradius
     direction 1 -4.48966e-011 -3.24039e-027   
     length 3.64452   
     axis 180 -30 -90   XYZ
    dof rx
    limits (-10.0 170.0)
  end
  begin
     id 20
     name lwrist
     direction 1 -4.48999e-011 2.57119e-027   
     length 1.82226   
     axis -1.61769e-015 90 90   XYZ
    dof ry
    limits (-180.0 0.0)
 end
  begin
     id 21 
     name lhand
     direction 1 -4.48961e-011 5.13984e-027   
     length 0.56228   
     axis -3.27988e-015 90 90   XYZ
    dof rx rz
    limits (-90.0 90.0)
           (-45.0 45.0)
  end
  begin
     id 22 
     name lfingers
     direction 1 -4.48991e-011 1.02836e-026   
     length 0.453325   
     axis -6.5598e-015 90 90   XYZ
    dof rx
    limits (0.0 90.0)
  end
  begin
     id 23
     name lthumb
     direction 0.707107 -6.34956e-011 0.707107   
     length 0.650886   
     axis -90 45 2.19363e-014   XYZ
    dof rx rz
    limits (-45.0 45.0)
           (-45.0 45.0)
  end
  begin
     id 24 
     name rclavicle
     direction -0.929201 0.345171 -0.132073   
     length 3.55416  
     axis 0 0 0   XYZ 
    dof ry rz
    limits (-10.0 20.0)
           (-20.0 0.0)
  end
  begin
     id 25 
     name rhumerus
     direction -1 -4.48979e-011 4.53734e-027  
     length 5.33913   
     axis 180 30 90   XYZ
    dof rx ry rz
    limits (-90.0 60.0)
           (-90.0 90.0)
           (-90.0 90.0)
  end
  begin
     id 26 
     name rradius
     direction -1 -4.4896e-011 -2.24007e-027   
     length 3.56478   
     axis 180 30 90   XYZ
    dof rx
    limits (-10.0 170.0)
  end
  begin
     id 27 
     name rwrist
     direction -1 -4.48923e-011 2.56866e-027   
     length 1.78239   
     axis -1.61769e-015 -90 -90   XYZ
    dof ry
    limits (-180.0 0.0)
  end
  begin
     id 28
     name rhand
     direction -1 -4.48914e-011 5.13667e-027   
     length 0.857474   
     axis -3.27988e-015 -90 -90   XYZ
    dof rx rz
    limits (-90.0 90.0)
           (-45.0 45.0)
  end
  begin
     id 29
     name rfingers
     direction -1 -4.49112e-011 1.02998e-026   
     length 0.691318   
     axis -6.5598e-015 -90 -90   XYZ
    dof rx
    limits (0.0 90.0)
  end
  begin
     id 30
     name rthumb
     direction -0.707107 -6.34979e-011 0.707107   
     length 0.992598   
     axis -90 -45 -2.19363e-014   XYZ
    dof rx rz
    limits (-45.0 45.0)
           (-45.0 45.0)
  end
:hierarchy
  begin
    root lhipjoint rhipjoint lowerback
    lhipjoint lfemur
    lfemur ltibia
    ltibia lfoot
    lfoot ltoes
    rhipjoint rfemur
    rfemur rtibia
    rtibia rfoot
    rfoot rtoes
    lowerback upperback
    upperback thorax
    thorax lowerneck lclavicle rclavicle
    lowerneck upperneck
    upperneck head
    lclavicle lhumerus
    lhumerus lradius
    lradius lwrist
    lwrist lhand lthumb
    lhand lfingers
    rclavicle rhumerus
    rhumerus rradius
    rradius rwrist
    rwrist rhand rthumb
    rhand rfingers
  end

#!OML:ASF F:\VICON\USERDATA\INSTALL\Justin4\Justin4.ASF
:FULLY-SPECIFIED
:DEGREES
1566
root -9.89664 16.2204 14.3661 -0.970074 16.6512 -4.23574
lowerback 16.314 3.135 1.97673
upperback 0.487048 4.59212 0.702415
thorax -8.52723 2.14781 -1.42972
lowerneck -12.7932 -2.27945 -3.40048
upperneck 11.9819 -2.98207 3.77575
head 5.83122 -1.31593 1.48708
rclavicle -7.52897e-015 -2.38542e-014
rhumerus 4.09617 -3.04448 -50.1035
rradius 115.995
rwrist 92.8602
rhand -56.4679 136.877
rfingers 7.12502
rthumb -28.7833 -195.322
lclavicle -7.52897e-015 -2.38542e-014
lhumerus 14.6091 -11.3031 80.4187
lradius 129.459
lwrist 9.18522
lhand -10.6578 7.2449
lfingers 7.12502
lthumb 15.3501 36.6551
rfemur 4.51324 -13.3556 17.6663
rtibia 57.5377
rfoot -9.6895 0.678063
rtoes -14.5817
lfemur -52.577 -10.8936 8.28631
ltibia 50.8849
lfoot 22.0127 -25.0927
ltoes -36.2129
1567
root -9.94781 16.2272 14.4256 -1.11684 17.1605 -4.62002
lowerback 16.7759 3.78281 2.93674
upperback 0.443018 5.57797 -0.031812
thorax -8.63275 2.56197 -3.01041
lowerneck -11.5883 -2.61679 -2.59516
upperneck 11.1294 -3.56399 3.61653
head 5.36548 -1.59335 1.26863
rclavicle -5.40694e-014 3.37934e-014
rhumerus 9.17314 -5.22249 -47.2921
rradius 109.975
rwrist 87.105
rhand -64.9451 137.359
rfingers 7.12502
rthumb -36.8457 -196.537
lclavicle -5.40694e-014 3.37934e-014
lhumerus 14.5882 -13.6045 80.0711
lradius 129.438
lwrist 7.64096
lhand -10.2022 7.39916
lfingers 7.12502
lthumb 15.789 36.7752
rfemur 4.09422 -13.3796 17.8823
rtibia 58.1935
rfoot -9.06529 -1.72933
rtoes -12.7502
lfemur -52.9141 -10.8319 9.10587
ltibia 50.8959
lfoot 19.9559 -18.9804
ltoes -34.5217
1568
root -9.98167 16.2184 14.5006 -1.22442 17.5412 -5.06981
lowerback 16.8431 4.3467 4.05869
upperback 0.794563 6.48761 -0.517865
thorax -8.04386 2.97467 -4.33785
lowerneck -12.2572 -3.11177 -3.00291
upperneck 11.3272 -4.19859 3.94638
head 5.57616 -1.88702 1.37575
rclavicle 1.60022e-014 -1.19271e-015
rhumerus 15.7023 -6.87023 -44.7863
rradius 101.983
rwrist 76.8531
rhand -76.277 167.231
rfingers 7.12502
rthumb -47.4545 -170.305
lclavicle 1.60022e-014 -1.19271e-015
lhumerus 14.9162 -15.6822 80.2423
lradius 129.529
lwrist 5.04559
lhand -10.4106 6.85694
lfingers 7.12502
lthumb 15.5882 36.2488
rfemur 3.76117 -13.4056 17.9793
rtibia 58.6603
rfoot -8.88145 -4.22985
rtoes -11.7784
lfemur -53.3736 -10.6282 9.93606
ltibia 51.3081
lfoot 18.4639 -14.1869
ltoes -30.9494
1569
root -9.99591 16.2018 14.583 -1.2049 17.9978 -5.20705
lowerback 16.6501 4.71153 4.75746
upperback 1.22404 7.06317 -0.720283
thorax -7.30483 3.26889 -5.00827
lowerneck -13.2588 -3.47265 -3.97821
upperneck 11.8936 -4.53896 4.25353
head 5.9651 -2.05594 1.58422
rclavicle 1.69961e-014 -5.56597e-015
rhumerus 23.0096 -7.14409 -42.954
rradius 92.4413
rwrist 62.9327
rhand -65.7886 60.7931
rfingers 7.12502
rthumb -37.6432 -325.102
lclavicle 1.69961e-014 -5.56597e-015
lhumerus 14.6397 -17.3207 81.158
lradius 129.662
lwrist 1.21284
lhand -11.4257 5.42939
lfingers 7.12502
lthumb 14.6103 34.8947
rfemur 3.52553 -13.6421 17.4378
rtibia 58.8756
rfoot -9.09264 -6.06659
rtoes -11.1237
lfemur -53.8364 -10.6201 10.4228
ltibia 51.9066
lfoot 16.8115 -12.4851
ltoes -31.045
1570
root -10.0097 16.1656 14.6603 -1.50545 18.2292 -5.8677
lowerback 16.7112 4.8535 5.45214
upperback 1.38644 7.39417 -0.509586
thorax -7.06723 3.42606 -5.22626
lowerneck -13.5924 -3.56279 -4.64305
upperneck 12.6394 -4.55505 4.34954
head 6.2766 -2.07835 1.71428
rclavicle 2.60408e-014 9.93923e-015
rhumerus 30.0369 -6.15121 -42.4459
rradius 82.7004
rwrist 49.3662
rhand -45.0301 42.0451
rfingers 7.12502
rthumb -17.8127 -347.159
lclavicle 2.60408e-014 9.93923e-015
lhumerus 13.0875 -18.4246 82.5079
lradius 130.165
lwrist -2.23897
lhand -11.7686 4.7386
lfingers 7.12502
lthumb 14.2799 34.2276
rfemur 3.27219 -13.5674 17.4362
rtibia 58.8275
rfoot -9.60525 -7.55292
rtoes -9.1669
lfemur -53.9911 -10.4416 11.516
ltibia 52.606
lfoot 16.0047 -12.9698
ltoes -31.6862
1571
root -10.0173 16.1185 14.7459 -1.8352 18.2831 -6.5462
lowerback 16.8082 4.88663 5.93585
upperback 1.26001 7.55707 -0.283456
thorax -7.2084 3.48258 -5.30333
lowerneck -13.8075 -3.67767 -4.85154
upperneck 13.911 -4.70411 4.38867
head 6.73326 -2.14717 1.74037
rclavicle 4.9398e-014 6.75868e-015
rhumerus 35.4435 -5.04782 -43.561
rradius 74.5857
rwrist 40.2124
rhand -19.6776 21.7215
rfingers 7.12502
rthumb 6.65109 -368.154
lclavicle 4.9398e-014 6.75868e-015
lhumerus 10.6438 -19.5188 83.9643
lradius 131.351
lwrist -2.35037
lhand -10.3333 4.98296
lfingers 7.12502
lthumb 15.6627 34.369
rfemur 3.01758 -13.2131 17.4256
rtibia 58.438
rfoot -10.2344 -8.75297
rtoes -5.87597
lfemur -53.7809 -10.1693 12.6347
ltibia 53.2876
lfoot 16.5754 -14.5076
ltoes -30.8238
1572
root -10.0159 16.0764 14.8526 -1.95725 18.4945 -6.57218
lowerback 16.6561 4.86968 5.81843
upperback 1.0848 7.50622 -0.344668
thorax -7.32775 3.45107 -5.28977
lowerneck -12.7048 -3.25154 -4.23029
upperneck 14.0192 -4.30299 4.45045
head 6.54617 -1.92822 1.7144
rclavicle 6.1822e-014 -7.95139e-015
rhumerus 38.4931 -4.802 -46.0642
rradius 70.488
rwrist 38.8381
rhand 2.93213 11.2178
rfingers 7.12502
rthumb 28.3957 -376.648
lclavicle 6.1822e-014 -7.95139e-015
lhumerus 8.16831 -21.0144 85.2517
lradius 132.822
lwrist 0.0703013
lhand -8.16678 6.20466
lfingers 7.12502
lthumb 17.7484 35.4147
rfemur 3.00906 -12.9649 16.5743
rtibia 57.5673
rfoot -11.1353 -9.75058
rtoes -3.43993
lfemur -53.1698 -10.2752 13.0358
ltibia 53.8457
lfoot 17.0032 -16.6253
ltoes -32.5632
1573
root -10.0145 16.0224 14.9691 -2.1872 18.7502 -6.56734
lowerback 16.5308 4.92343 5.5425
upperback 1.10706 7.50998 -0.446594
thorax -7.25479 3.46541 -5.23146
lowerneck -12.5492 -3.32603 -4.18205
upperneck 14.1234 -4.55864 5.27889
head 6.5833 -1.98055 1.94991
rclavicle 6.4605e-015 1.98785e-015
rhumerus 39.0539 -5.38886 -48.6762
rradius 71.2208
rwrist 43.3766
rhand 17.5922 9.91351
rfingers 7.12502
rthumb 42.2858 -374.58
lclavicle 6.4605e-015 1.98785e-015
lhumerus 6.57384 -23.2402 86.247
lradius 133.105
lwrist 0.0298639
lhand -9.20754 5.78985
lfingers 7.12502
lthumb 16.7467 35.0876
rfemur 3.27805 -12.6807 15.6764
rtibia 56.2792
rfoot -12.6757 -11.0515
rtoes -3.92412
lfemur -52.0927 -10.509 13.3305
ltibia 54.2343
lfoot 17.1194 -18.4985
ltoes -35.6943
1574
root -10.0139 15.9541 15.0911 -2.46396 18.9154 -6.64329
lowerback 16.5576 5.16313 5.16887
upperback 1.17355 7.74702 -0.570107
thorax -7.2003 3.59511 -5.20188
lowerneck -12.9737 -3.65162 -4.0504
upperneck 14.1354 -5.18933 6.31512
head 6.71847 -2.18207 2.19394
rclavicle 6.72886e-014 -1.63003e-014
rhumerus 37.2573 -6.10877 -50.5637
rradius 74.374
rwrist 47.3328
rhand 14.0487 13.579
rfingers 7.12502
rthumb 38.9555 -371.954
lclavicle 6.72886e-014 -1.63003e-014
lhumerus 5.86117 -25.7575 87.023
lradius 134.416
lwrist 3.19366
lhand -6.4127 9.61564
lfingers 7.12502
lthumb 19.4356 38.6643
rfemur 3.56747 -12.2208 14.9088
rtibia 54.8788
rfoot -15.077 -12.3247
rtoes -7.6596
lfemur -50.6038 -10.7095 13.6632
ltibia 54.4123
lfoot 17.6404 -19.5855
ltoes -36.8788
1575
root -10.015 15.8851 15.226 -2.5631 19.0618 -6.67817
lowerback 16.4558 5.47395 4.49412
upperback 1.12055 8.0168 -0.738238
thorax -7.23727 3.74263 -5.05568
lowerneck -13.1317 -3.77682 -2.92836
upperneck 13.9913 -5.64909 6.78695
head 6.70998 -2.30047 2.11356
rclavicle -2.9122e-014 1.35174e-014
rhumerus 34.3169 -5.36133 -51.4123
rradius 77.6473
rwrist 44.9582
rhand 1.41163 12.8798
rfingers 7.12502
rthumb 26.9418 -375.22
lclavicle -2.9122e-014 1.35174e-014
lhumerus 5.11342 -28.4124 87.4065
lradius 135.056
lwrist 3.54331
lhand -5.43633 10.4735
lfingers 7.12502
lthumb 20.3741 39.4247
rfemur 3.58666 -11.6212 14.1436
rtibia 53.8267
rfoot -17.2122 -12.5517
rtoes -11.8515
lfemur -48.7902 -10.8944 13.9434
ltibia 54.2888
lfoot 18.3073 -19.6196
ltoes -35.0891
1576
root -10.0113 15.8229 15.3754 -2.42763 19.3 -6.51331
lowerback 16.01 5.80024 3.58568
upperback 1.07064 8.25407 -0.913199
thorax -7.12107 3.89005 -4.74022
lowerneck -13.1143 -3.89546 -1.27084
upperneck 13.7848 -6.09674 6.62685
head 6.6117 -2.4442 1.74737
rclavicle 6.41081e-014 1.11319e-014
rhumerus 31.2483 -2.23283 -51.1099
rradius 80.394
rwrist 35.4284
rhand -17.2087 9.17295
rfingers 7.12502
rthumb 9.03396 -380.614
lclavicle 6.41081e-014 1.11319e-014
lhumerus 4.17013 -31.0787 87.5549
lradius 135.42
lwrist 1.83315
lhand -5.43847 9.57916
lfingers 7.12502
lthumb 20.3721 38.5306
rfemur 3.46331 -11.0401 13.1041
rtibia 53.4535
rfoot -18.2266 -10.9755
rtoes -9.87696
lfemur -46.6208 -11.0738 13.8603
ltibia 53.7951
lfoot 12.7982 -18.6281
ltoes -40.8637
1577
root -10.0013 15.7713 15.5351 -2.25086 19.6426 -6.18993
lowerback 15.3061 6.01537 2.66918
upperback 1.12495 8.35401 -0.978839
thorax -6.78599 3.98257 -4.237
lowerneck -13.7538 -3.93534 -2.01547
upperneck 13.7741 -6.0996 7.19682
head 6.76044 -2.42339 2.04104
rclavicle -3.42904e-014 -7.15625e-015
rhumerus 28.4984 1.73343 -50.9947
rradius 83.3609
rwrist 25.6108
rhand -24.3757 13.2629
rfingers 7.12502
rthumb 2.11452 -376.706
lclavicle -3.42904e-014 -7.15625e-015
lhumerus 3.39977 -33.3959 87.6433
lradius 134.992
lwrist -2.67244
lhand -7.96943 7.50024
lfingers 7.12502
lthumb 17.9383 36.693
rfemur 3.45982 -10.4846 11.8003
rtibia 53.6534
rfoot -18.9625 -7.76175
rtoes -10.0778
lfemur -44.1561 -11.1776 13.2859
ltibia 52.9488
lfoot 6.28122 -17.4768
ltoes -40.3038
1578
root -9.98681 15.7262 15.6891 -1.95214 20.0345 -5.9026
lowerback 14.5281 5.81563 2.01522
upperback 1.02539 7.96926 -0.97868
thorax -6.58373 3.82215 -3.72251
lowerneck -13.3962 -3.6791 -2.05444
upperneck 13.4687 -5.66311 6.83049
head 6.56779 -2.2633 1.97975
rclavicle 4.68138e-014 -6.36111e-015
rhumerus 25.9914 6.36081 -51.787
rradius 86.9876
rwrist 18.029
rhand -28.0453 18.0286
rfingers 7.12502
rthumb -1.42967 -371.946
lclavicle 4.68138e-014 -6.36111e-015
lhumerus 2.41691 -34.5159 87.6292
lradius 133.512
lwrist -11.3698
lhand -14.021 4.98704
lfingers 7.12502
lthumb 12.1088 34.6167
rfemur 3.32643 -9.87579 10.5544
rtibia 54.0282
rfoot -19.6952 -3.97007
rtoes -11.4528
lfemur -42.1327 -11.0258 12.4792
ltibia 51.8886
lfoot 1.56482 -15.2781
ltoes -37.6446
1579
root -9.96586 15.6783 15.8269 -1.53099 20.5867 -5.64847
lowerback 13.9783 5.1873 1.84154
upperback 0.761794 7.09922 -1.06839
thorax -6.62889 3.3986 -3.52048
lowerneck -13.3302 -3.36707 -2.67784
upperneck 13.9138 -5.12053 6.70224
head 6.68349 -2.03809 2.09634
rclavicle 4.28381e-014 -1.19271e-014
rhumerus 23.524 9.34165 -54.2507
rradius 91.5439
rwrist 20.6884
rhand -24.6502 20.0775
rfingers 7.12502
rthumb 1.84939 -369.894
lclavicle 4.28381e-014 -1.19271e-014
lhumerus 1.4744 -33.9031 87.4628
lradius 133.045
lwrist -15.3042
lhand -15.9638 4.26125
lfingers 7.12502
lthumb 10.235 33.9922
rfemur 3.16144 -9.3488 9.39184
rtibia 54.1914
rfoot -20.4919 -0.497671
rtoes -16.6194
lfemur -40.9501 -10.648 11.4863
ltibia 50.8612
lfoot -2.81399 -13.8396
ltoes -36.7376
1580
root -9.95289 15.6279 15.9558 -1.42239 21.1693 -5.60667
lowerback 13.8501 4.56758 2.0201
upperback 0.500041 6.29072 -1.30025
thorax -6.84303 2.98646 -3.72101
lowerneck -13.3014 -3.15496 -2.78157
upperneck 14.4318 -4.82005 6.58047
head 6.82832 -1.89982 2.10602
rclavicle 1.799e-014 7.95139e-016
rhumerus 20.4343 10.8798 -57.3775
rradius 96.1942
rwrist 25.8707
rhand -16.0175 20.7851
rfingers 7.12502
rthumb 10.1833 -368.948
lclavicle 1.799e-014 7.95139e-016
lhumerus 1.18978 -32.8707 86.9038
lradius 133.027
lwrist -14.6573
lhand -15.7521 3.16916
lfingers 7.12502
lthumb 10.4393 32.89
rfemur 3.30104 -8.40035 8.68874
rtibia 54.0126
rfoot -20.9545 2.79746
rtoes -21.8167
lfemur -40.0265 -9.91321 10.5512
ltibia 50.2047
lfoot -6.53804 -12.9752
ltoes -36.8443
